Coordinates
version=1
nRows=26
nColumns=22
inDegrees=yes

Units are S.I. units (second, meters, Newtons, ...)
If the header above contains a line with 'inDegrees', this indicates whether rotational values are in degrees (yes) or radians (no).

endheader
time	pelvis_tilt	pelvis_list	pelvis_rotation	pelvis_tx	pelvis_ty	pelvis_tz	hip_flexion_r	hip_adduction_r	hip_rotation_r	knee_angle_r	ankle_angle_r	subtalar_angle_r	hip_flexion_l	hip_adduction_l	hip_rotation_l	knee_angle_l	ankle_angle_l	subtalar_angle_l	lumbar_extension	lumbar_bending	lumbar_rotation
      1.42000000	    -10.11313662	      4.07516821	    -38.54089400	     -1.23781496	      0.87649680	     -0.10682059	      8.71503109	      2.53037400	      1.11163018	     -9.38629425	     16.53091936	     -2.29596398	     11.05232740	    -10.22111056	     -8.07650932	    -17.68289028	     18.02349077	      8.04018713	      3.04830996	      3.22086475	     10.89169257
      1.43000000	    -10.21782775	      3.92507215	    -38.62276569	     -1.23774552	      0.87592365	     -0.10481264	      8.58547110	      2.84281705	      1.25167833	     -9.35622553	     16.69254073	     -2.47323289	     11.69348441	    -10.60387009	     -7.83518492	    -19.08175207	     18.35499214	      7.77841402	      2.95168346	      3.50666270	     10.94823828
      1.44000000	    -10.30470408	      3.72133340	    -38.70988256	     -1.23762665	      0.87534463	     -0.10280304	      8.40452012	      3.18736736	      1.38953816	     -9.33620007	     16.86091131	     -2.66086411	     12.37100558	    -11.02434429	     -7.56022455	    -20.63696624	     18.69206343	      7.55078005	      2.79255427	      3.83567571	     11.01247080
      1.45000000	    -10.36957450	      3.46394427	    -38.79263522	     -1.23741546	      0.87479254	     -0.10078081	      8.12813867	      3.55678763	      1.52240300	     -9.24995296	     16.99820309	     -2.79984171	     13.08448607	    -11.48121919	     -7.27328555	    -22.35171278	     18.96555154	      7.39306917	      2.57368612	      4.20244105	     11.08387359
      1.46000000	    -10.39272253	      3.16183033	    -38.87724395	     -1.23714858	      0.87428894	     -0.09877115	      7.78766644	      3.93224918	      1.65192863	     -9.17512211	     17.13852806	     -2.92866878	     13.81522495	    -11.95036563	     -6.96313829	    -24.21137785	     19.19652014	      7.28033067	      2.27308974	      4.58081759	     11.16092842
      1.47000000	    -10.41194261	      2.85771482	    -38.93660156	     -1.23678765	      0.87378039	     -0.09679964	      7.40399144	      4.29650096	      1.74324253	     -9.03520039	     17.29806303	     -3.10999903	     14.64011010	    -12.41596926	     -6.62017081	    -26.23195113	     19.30066852	      7.20575671	      1.96522456	      4.95564147	     11.24625354
      1.48000000	    -10.35672476	      2.50347055	    -39.00276974	     -1.23636832	      0.87342386	     -0.09485269	      6.92278260	      4.64695007	      1.84348651	     -8.89942197	     17.43020812	     -3.23044941	     15.44364532	    -12.87548590	     -6.26958114	    -28.38543239	     19.32276823	      7.16336852	      1.53591027	      5.32062596	     11.33870919
      1.49000000	    -10.28008660	      2.16028871	    -39.04245948	     -1.23586534	      0.87312900	     -0.09295732	      6.39850163	      4.96455917	      1.91386791	     -8.70551109	     17.55168274	     -3.36252835	     16.32828272	    -13.30079955	     -5.87696066	    -30.68186504	     19.18608500	      7.14167619	      1.08830029	      5.65124765	     11.43437379
      1.50000000	    -10.17008056	      1.83145021	    -39.06431779	     -1.23530106	      0.87292717	     -0.09111730	      5.83875555	      5.24007805	      1.96533236	     -8.47935084	     17.65428151	     -3.49200450	     17.27813095	    -13.67893725	     -5.44862208	    -33.10211204	     18.90920354	      7.12013548	      0.60920979	      5.93562294	     11.53485319
      1.51000000	    -10.02610994	      1.52761063	    -39.07443621	     -1.23467355	      0.87282769	     -0.08931747	      5.25443194	      5.46579826	      2.00247040	     -8.23051380	     17.73912643	     -3.59982920	     18.28521562	    -13.99702980	     -4.99804530	    -35.61552433	     18.50465406	      7.07591499	      0.10504557	      6.16176474	     11.64266648
      1.52000000	     -9.87040152	      1.26390917	    -39.07038420	     -1.23395450	      0.87279593	     -0.08755822	      4.67225453	      5.64321376	      2.02291650	     -7.95785859	     17.80537099	     -3.69533970	     19.36591358	    -14.24836773	     -4.52296055	    -38.18242696	     18.00141205	      6.99312476	     -0.38493001	      6.33455249	     11.76248552
      1.53000000	     -9.71791258	      1.06505785	    -39.05921099	     -1.23314717	      0.87279307	     -0.08583358	      4.12936783	      5.76198096	      2.02990268	     -7.67496884	     17.86429531	     -3.79067724	     20.52804212	    -14.41798821	     -4.03976902	    -40.75131629	     17.46401898	      6.85274994	     -0.82973651	      6.44303999	     11.90011483
      1.54000000	     -9.57290427	      0.94774340	    -39.06007150	     -1.23226990	      0.87280134	     -0.08412579	      3.66840368	      5.81370667	      2.05266560	     -7.43892535	     17.94994181	     -3.89804743	     21.75481454	    -14.49398965	     -3.56962781	    -43.25277049	     16.92510851	      6.61694090	     -1.21419399	      6.47585989	     12.06524252
      1.55000000	     -9.40023062	      0.86587551	    -39.08087143	     -1.23122156	      0.87292654	     -0.08235969	      3.17049909	      5.81046340	      2.07519255	     -7.14508131	     17.95490799	     -3.92187864	     22.94362043	    -14.50240569	     -3.16809927	    -45.60679457	     16.43900718	      6.42306412	     -1.59028562	      6.44933641	     12.27527084
      1.56000000	     -9.25841405	      0.88658435	    -39.12775145	     -1.23009375	      0.87300315	     -0.08059101	      2.79929831	      5.73751479	      2.12327909	     -6.92019345	     18.00436786	     -3.95144282	     24.18925804	    -14.42488453	     -2.83041326	    -47.78578695	     16.06401285	      6.16257351	     -1.86573280	      6.34758860	     12.51593317
      1.57000000	     -9.12392126	      0.99132981	    -39.21695701	     -1.22884648	      0.87308373	     -0.07878994	      2.50963774	      5.59322004	      2.20345970	     -6.74291664	     18.07917570	     -3.97245489	     25.42703153	    -14.27401080	     -2.59999162	    -49.72552506	     15.81567513	      5.86910723	     -2.07146517	      6.17288764	     12.80443062
      1.58000000	     -8.97985936	      1.16511620	    -39.35090284	     -1.22749077	      0.87319816	     -0.07693935	      2.27666289	      5.38100865	      2.32429194	     -6.60956897	     18.15976942	     -3.97696818	     26.62018492	    -14.06149713	     -2.48758873	    -51.38662798	     15.67245557	      5.59053631	     -2.23518980	      5.92340446	     13.14468023
      1.59000000	     -8.83790582	      1.39264635	    -39.52291827	     -1.22601416	      0.87331621	     -0.07504447	      2.10744422	      5.12163679	      2.46327558	     -6.53599642	     18.27124509	     -3.97247637	     27.77268081	    -13.81896891	     -2.49515296	    -52.75524402	     15.62742346	      5.30009974	     -2.35562299	      5.62548291	     13.51847199
      1.60000000	     -8.67929578	      1.65497742	    -39.72958981	     -1.22442551	      0.87347472	     -0.07311853	      1.96221640	      4.81695799	      2.63941202	     -6.49415678	     18.37400138	     -3.95922335	     28.84984828	    -13.54719677	     -2.59159635	    -53.80452668	     15.61883181	      5.05162234	     -2.46824643	      5.28078869	     13.92988876
      1.61000000	     -8.54188492	      1.93602049	    -39.95628279	     -1.22272540	      0.87357916	     -0.07114531	      1.88072114	      4.51020094	      2.80295916	     -6.52690515	     18.54480366	     -3.94187912	     29.89728253	    -13.30303479	     -2.77686553	    -54.56403334	     15.63819557	      4.68293887	     -2.54546131	      4.93250008	     14.33911644
      1.62000000	     -8.38104946	      2.23314526	    -40.20875283	     -1.22091452	      0.87370991	     -0.06912473	      1.79892304	      4.17092126	      3.00662063	     -6.58064938	     18.68476726	     -3.92430615	     30.84747680	    -13.04931818	     -3.01852495	    -54.98964524	     15.62850565	      4.36549876	     -2.63411963	      4.54724985	     14.77883697
      1.63000000	     -8.21508205	      2.52454032	    -40.46941010	     -1.21899296	      0.87382596	     -0.06707835	      1.72819778	      3.83029489	      3.22134950	     -6.67854859	     18.82614518	     -3.91094733	     31.71837170	    -12.80834752	     -3.26911088	    -55.10300959	     15.58334590	      4.03893511	     -2.73505877	      4.15903084	     15.22524328
      1.64000000	     -8.05019730	      2.78969746	    -40.72011063	     -1.21691841	      0.87387851	     -0.06497522	      1.63493996	      3.50886238	      3.41063651	     -6.78400489	     19.03449996	     -3.89459176	     32.51571427	    -12.61143273	     -3.53342190	    -54.93662990	     15.51036695	      3.52823955	     -2.84986189	      3.78996853	     15.62737158
      1.65000000	     -7.87531078	      3.03086299	    -40.96340187	     -1.21470120	      0.87390878	     -0.06287910	      1.52876126	      3.19361671	      3.60642936	     -6.92347417	     19.20167167	     -3.89172839	     33.21676493	    -12.42203199	     -3.75200263	    -54.47334870	     15.38303550	      3.16744601	     -2.99645314	      3.43475868	     16.03628608
      1.66000000	     -7.69148450	      3.22157829	    -41.17919670	     -1.21228028	      0.87387311	     -0.06073100	      1.34419240	      2.90692499	      3.76208305	     -7.01937080	     19.43699186	     -3.88390684	     33.82851239	    -12.27005445	     -3.93629269	    -53.77373537	     15.22318089	      2.60469857	     -3.18083094	      3.11243143	     16.39859303
      1.67000000	     -7.50701063	      3.37523722	    -41.37115284	     -1.20969693	      0.87377237	     -0.05857522	      1.12779346	      2.64391000	      3.90885778	     -7.12519709	     19.64814194	     -3.88147555	     34.35698502	    -12.13013451	     -4.03882010	    -52.83131465	     15.02479750	      2.15631427	     -3.39568204	      2.81837348	     16.72912924
